<svg width="25" height="16" viewBox="0 0 25 16" fill="none" xmlns="http://www.w3.org/2000/svg">
<path d="M21.6191 0V14.2445C21.6191 14.8207 21.1681 15.2895 20.6138 15.2895H20.6017C20.0474 15.2895 19.5963 14.8207 19.5963 14.2445V0H16.2147V14.2445C16.2147 14.8207 15.7636 15.2895 15.2094 15.2895H15.1972C14.6429 15.2895 14.1919 14.8207 14.1919 14.2445V0H10.81V14.2445C10.81 14.8207 10.3589 15.2895 9.80464 15.2895H9.79223C9.23795 15.2895 8.78692 14.8207 8.78692 14.2445V1.75142C8.78692 0.78567 8.03115 0 7.10215 0H7.09001C6.16101 0 5.40524 0.78567 5.40524 1.75142V14.2445C5.40524 14.8207 4.95421 15.2895 4.39993 15.2895H4.38778C3.8335 15.2895 3.38247 14.8207 3.38247 14.2445V1.75142C3.38247 0.78567 2.6267 0 1.6977 0H1.68476C0.755767 0 0 0.78567 0 1.75142V16H0.679451V1.75142C0.679451 1.17521 1.13048 0.706334 1.68476 0.706334H1.69691C2.25119 0.706334 2.70222 1.17521 2.70222 1.75142V14.2445C2.70222 15.2102 3.45799 15.9959 4.38699 15.9959H4.39914C5.32813 15.9959 6.0839 15.2102 6.0839 14.2445V1.75142C6.0839 1.17521 6.53493 0.706334 7.08921 0.706334H7.10136C7.65564 0.706334 8.10667 1.17521 8.10667 1.75142V14.2445C8.10667 15.2102 8.86244 15.9959 9.79144 15.9959H9.80385C10.7328 15.9959 11.4886 15.2102 11.4886 14.2445V1.75142C11.4886 1.17521 11.9396 0.706334 12.4939 0.706334H12.5063C13.0606 0.706334 13.5117 1.17521 13.5117 1.75142V15.9959H16.8933V1.75142C16.8933 1.17521 17.3444 0.706334 17.8986 0.706334H17.9108C18.4651 0.706334 18.9161 1.17521 18.9161 1.75142V15.9959H22.2978V1.75142C22.2978 1.17521 22.7488 0.706334 23.3031 0.706334H23.3152C23.8695 0.706334 24.3205 1.17521 24.3205 1.75142V16H25V0H21.6191Z" fill="black"/>
</svg>
